<svg id="Layer_1" data-name="Layer 1" xmlns="http://www.w3.org/2000/svg" width="5070.52" height="1559.22" viewBox="0 0 5070.52 1559.22"><defs><style>.cls-1{fill:#fff;}</style></defs><title>chevron1</title><path class="cls-1" d="M605.74,1789.34l551.56-183.86V1973.2l-551.61,184L54.2,1973.28h0l0,0V1605.42l514,171.38L105.37,1957.1,605.7,1789.33Zm0,427.44L105.37,2384.5l462.78-180.28-514-171.29v367.75l0,0h0l551.49,183.84,551.61-183.92V2033L605.74,2216.8Zm1420.53,34.78c-37.06,17-69.15,26.28-116.44,26.28-119.4,0-202-73.14-202-211.39,0-154.57,103.54-212.61,201.14-212.61,55.19,0,87.15,12.14,117.26,25.48l25-140.85c-27-14.37-69-29.58-148.47-29.58-205,0-369.82,124.64-369.82,360.17,0,197.84,129.38,352.92,354.83,352.92,81.42,0,136.33-16.34,163.5-29.61ZM2818.57,2200H3151a470.6,470.6,0,0,0,3.68-53.1c0-149.34-72.57-268.52-234.43-268.52-157.06,0-261.89,104.6-261.89,266.69,0,167.56,97.49,276.94,279.36,276.94,67.48,0,133.82-11.3,191.87-40.45l-23.07-118.9c-38.56,22.73-96.45,37.2-146.24,36.81-82.63-.73-136.11-35-141.74-99.47m-1-108.72c4.33-49.53,33.57-102.92,95.59-102.92,70.74,0,89,65.48,89,102.92Zm702.85,309.52,168.8-501.14H3520.59l-91.73,354.49h-3.09l-91.71-354.49H3165.5l168.82,501.14Zm212.13,0h152.24V2165.91a178.07,178.07,0,0,1,3-34.79c10-49.25,45.56-92,104.38-97.41,19.51-1.81,47.32,1.43,61.33,4.18V1891.35c-14.65-2.83-27.43-4.51-51.07-3.13-49.72,2.81-98,30.83-123.22,104.55h-3.87l-4.35-93.14H3727.06c3.13,43,5.47,91.08,5.47,164.81Zm857.92-250.61c0-164.26-99-271.81-259.31-271.81s-259.43,107.55-259.43,271.81,99,271.82,259.43,271.82,259.31-107.56,259.31-271.82m-259.31,152.5c-73,0-100.89-70.86-100.89-152.5s27.9-152.53,100.89-152.53,100.92,71,100.92,152.53S4404,2302.66,4331.14,2302.66Zm327.23,98.11h152.76v-289.1c0-14.35,1.48-28.56,5.08-39,9.77-28.55,36.07-58.34,78.44-58.34,55.23,0,77.34,44.1,77.34,108.57v277.88h152.68V2099.86c0-147.52-65.77-216.28-166.51-216.28-82.28,0-135,53.56-155,86.16h-3.11l-3.3-70.11H4652.87c3.23,43.83,5.5,97.23,5.5,159.78ZM2425.69,1883.58c-60.74,0-119.52,27.53-149.44,71.76h-1.84v-244l-152.78,52.89v636.51h152.78V2103.43c0-42.91,27.9-89.11,81.44-89.11,57.26,0,79.32,45.09,79.32,110.65v275.8h152.91V2103.9C2588.08,1952.34,2523.09,1883.58,2425.69,1883.58Z" transform="translate(-54.15 -1025.32)"/><path class="cls-1" d="M54.15,1025.32H168.78l40,40v143.15l-40,40h-79v155.21H54.15Zm97.08,193.06,21.94-21.94v-119l-21.94-21.93H89.8v162.89Z" transform="translate(-54.15 -1025.32)"/><path class="cls-1" d="M252.7,1025.32H372.27l40,40v130l-36.2,36.2,37.3,172.22H377.2l-35.65-168.38h-53.2v168.38H252.7Zm102,179.9,21.93-21.94V1077.42l-21.93-21.93H288.35v149.73Z" transform="translate(-54.15 -1025.32)"/><path class="cls-1" d="M465.5,1025.32H599.88v30.17H501.15v142.6h91.6v30.16h-91.6v145.34H601v30.17H465.5Z" transform="translate(-54.15 -1025.32)"/><path class="cls-1" d="M635,1363.72v-57.59h35.65v46.07l21.94,21.94h41.14l21.93-21.94v-108l-17-17H671.73l-35.1-35.1V1065.36l40-40h73.49l40,40V1123H754.55v-45.53l-21.94-21.93H694.22l-21.94,21.93V1180l17,17h66.91l35.11,35.1v131.63l-40,40H675Z" transform="translate(-54.15 -1025.32)"/><path class="cls-1" d="M840.66,1025.32H975v30.17H876.31v142.6H967.9v30.16H876.31v145.34h99.82v30.17H840.66Z" transform="translate(-54.15 -1025.32)"/><path class="cls-1" d="M1021.11,1025.32h29.62L1151.1,1310V1025.32h31.81v378.44h-29.62l-100.37-286.3v286.3h-31.81Z" transform="translate(-54.15 -1025.32)"/><path class="cls-1" d="M1284.38,1055.49h-65.82v-30.17h167.28v30.17H1320v348.27h-35.65Z" transform="translate(-54.15 -1025.32)"/><path class="cls-1" d="M1421.5,1025.32h134.37v30.17h-98.72v142.6h91.59v30.16h-91.59v145.34H1557v30.17H1421.5Z" transform="translate(-54.15 -1025.32)"/><path class="cls-1" d="M1602,1025.32h118.46l40,40v298.36l-40,40H1602Zm100.91,348.27,21.94-21.94V1077.42l-21.94-21.93H1637.6v318.1Z" transform="translate(-54.15 -1025.32)"/><path class="cls-1" d="M1903.06,1025.32h120.11l40,40v107l-35.1,35.1,35.1,35.1v121.21l-40,40H1903.06Zm95.43,166.73,29.07-29.07v-85.56l-21.94-21.93h-66.91v136.56Zm7.13,181.54,21.94-21.94v-99.82l-29.07-29.06h-59.78v150.82Z" transform="translate(-54.15 -1025.32)"/><path class="cls-1" d="M2162.5,1277.61l-71.85-252.29h37.29l53.21,207.32L2236,1025.32h34l-71.85,252.29v126.15H2162.5Z" transform="translate(-54.15 -1025.32)"/></svg>